<?xml version="1.0" encoding="utf-8"?>
<!-- Generator: Adobe Illustrator 28.6.0, SVG Export Plug-In . SVG Version: 9.03 Build 54939)  -->
<svg version="1.0" id="Ebene_1" xmlns="http://www.w3.org/2000/svg" xmlns:xlink="http://www.w3.org/1999/xlink" x="0px" y="0px"
	 viewBox="0 0 402.9 166.2" enable-background="new 0 0 402.9 166.2" xml:space="preserve">
<g>
	<path fill="#282727" d="M304.3,54.1c3.8,10.4,13.8,17.6,25.2,17.6c10.7,0,20-6.5,24.8-17.6h-15.6c-2.5,3.2-5.1,4.8-9.2,4.8
		c-4.2,0-7.8-1.8-9.9-4.8H304.3z M137.4,54.1h-15.3c3.8,10.4,13.8,17.6,25.2,17.6c10.7,0,20-6.5,24.8-17.6h-15.6
		c-2.5,3.2-5.1,4.8-9.2,4.8C143.1,58.9,139.5,57.1,137.4,54.1 M20.4,54.1H5.1C9,64.5,18.9,71.7,30.4,71.7c10.7,0,20-6.5,24.8-17.6
		H39.6c-2.5,3.2-5.1,4.8-9.2,4.8C26.1,58.9,22.6,57.1,20.4,54.1 M41.7,39H18.7c1.2-5.4,5.9-8.7,11.4-8.7C36,30.3,40.5,33.8,41.7,39
		 M56.5,49.3c0.3-1.4,0.4-2.6,0.4-4c0-15.7-11.6-27.7-26.8-27.7c-14.9,0-26.6,12.6-26.6,27.3c0,1.5,0.2,3,0.4,4.5H56.5z M97.2,70
		h15.2V37.6c0-15-9.7-20.1-18.9-20.1c-6.1,0-10.6,1.9-13.8,7.1h-0.2v-5.4H65.3V70h15.2V42c0-6.9,2.6-10.2,8.7-10.2
		c5.6,0,8,3.2,8,10.1V70z M158.7,39h-23.1c1.2-5.4,5.9-8.7,11.4-8.7C152.9,30.3,157.5,33.8,158.7,39 M173.5,49.3
		c0.3-1.4,0.4-2.6,0.4-4c0-15.7-11.6-27.7-26.8-27.7c-14.9,0-26.6,12.6-26.6,27.3c0,1.5,0.2,3,0.4,4.5H173.5z M209.4,32.8V17.5
		c-5.9,0-10.1,1.7-12.7,7.1h-0.2v-5.4h-14.3V70h15.2V42C197.4,36.3,200.3,32.9,209.4,32.8 M252.2,44.9c0,7.3-5,12.6-12.4,12.6
		c-7.3,0-12.2-5.9-12.2-13.1c0-7,5.4-12.6,12.2-12.6C247.2,31.8,252.2,37.5,252.2,44.9 M264.7,80.2c1.8-3.5,2.7-8.7,2.7-15.6V19.2
		h-15.2V24H252c-2.5-3.9-7.5-6.4-14.1-6.4c-14.6,0-25.5,11.8-25.5,27.4c0,15.3,10.7,26.7,25.5,26.7c6.2,0,11.9-2.7,14.2-7.6v1.5
		c0,9.2-4.7,14.3-12.4,14.3c-3.8,0-7.1-1.3-8.9-5h-17.6c1.3,9.7,10.6,17.8,25,17.8C251,92.6,261,87.2,264.7,80.2 M279.1,13.8h15.2
		V2.3h-15.2V13.8z M279.1,70h15.2V19.2h-15.2V70z M340.8,39h-23.1c1.2-5.4,5.9-8.7,11.4-8.7C335.1,30.3,339.6,33.8,340.8,39
		 M355.7,49.3c0.3-1.4,0.4-2.6,0.4-4c0-15.7-11.6-27.7-26.8-27.7c-14.9,0-26.6,12.6-26.6,27.3c0,1.5,0.2,3,0.4,4.5H355.7z"/>
	<path fill="#282727" d="M217,147l-18.6-28.5l19.1-22.3h-18l-14.1,18.4h-0.2V84.7H170V147h15.2v-24.4h0.2l14.4,24.4H217z M149.5,147
		v-28c0-5.8,2.9-9.2,12-9.2V94.4c-5.9,0-10.1,1.7-12.7,7.1h-0.2v-5.4h-14.3V147H149.5z M95.4,134.5c-7,0-12.6-5.8-12.6-12.8
		c0-7.3,5.5-13.1,12.4-13.1c7.1,0,12.9,5.8,12.9,12.9C108.2,128.8,102.6,134.5,95.4,134.5 M123.4,147V96.2h-15.2v5.4H108
		c-2.9-4.7-8.7-7.1-14.9-7.1c-14.6,0-25.4,12.1-25.4,27.1c0,15.4,10.4,27.2,25.4,27.2c6.7,0,12.7-2.7,14.9-7.2h0.2v5.5H123.4z
		 M33.5,134.5c-7.2,0-12.7-5.8-12.7-12.9c0-7.3,5.7-13,12.6-13c7.3,0,12.8,5.9,12.8,13C46.2,128.7,40.7,134.5,33.5,134.5
		 M21.4,163.9v-21.5c4.1,4.5,9.3,6.3,15.3,6.3c14.6,0,24.7-12.2,24.7-26.6c0-15.8-10.3-27.6-24.7-27.6c-6.3,0-11.9,2.3-15.9,7.3
		h-0.3v-5.6H6.2v67.7H21.4z"/>
	<path fill="#FFE200" d="M399.5,146.9c-12.6-35-46.1-60.1-85.5-60.1s-72.9,25-85.5,60.1H399.5z"/>
</g>
</svg>
