<?xml version="1.0" encoding="UTF-8"?><svg id="a" xmlns="http://www.w3.org/2000/svg" width="150" height="130" viewBox="0 0 150 130"><defs><style>.b{fill:#001589;}.c{fill:#58585a;}</style></defs><path class="c" d="m42.725,128.63328v-23.216l-14.3307,23.216h-5.0492v-23.216l-14.35541,23.216H3l21.1372-34.3176h4.0591l.198,25.0466,15.1227-25.0466h4.2076v34.3176h-4.9996Z"/><path class="c" d="m53.2678,115.43027c0-4.599,3.6136-9.098,9.034-9.098,1.2871,0,2.4504.247,3.5146.692l-11.2863,12.609c-.8168-1.384-1.2623-2.62-1.2623-4.22701m18.7858,3.313s-.0247-.05-.17319.049c-.693.569-4.70271,5.835-9.5786,5.76099-.6187,0-2.5493-.198-4.3313-1.26099l14.8009-16.788c-2.5246-2.794-6.2372-4.624-10.4696-4.624-7.9697,0-13.8604,6.379-13.8604,13.376,0,6.478,5.2472,13.673,13.8604,13.673,5.3957,0,9.3806-3.461,11.3606-5.934,0,0-1.3365-2.967-1.6088-4.277"/><path class="c" d="m86.7327,106.33128c-5.94009,0-8.8112,5.143-8.8112,9.173,0,4.64899,3.6631,9.05,8.7617,9.05s8.9598-4.129,8.9598-9.05c0-5.464-3.9353-9.173-8.9103-9.173Zm8.9103,21.981v-3.66h-.099c-2.0543,2.819-5.3462,4.303-9.1083,4.303-8.539,0-13.3654-6.627-13.3654-13.401,0-6.256,4.2571-13.624,13.3654-13.624,3.5641,0,6.8808,1.484,8.7371,3.857h.099v-11.7685h4.8264v34.3175h-4.4552v-.02399Z"/><path class="c" d="m114.575,106.33228c-5.93999,0-8.811,5.143-8.811,9.173,0,4.64799,3.663,9.049,8.762,9.049,5.098,0,8.959-4.129,8.959-9.049,0-5.464-3.96-9.173-8.91-9.173Zm8.811,21.981v-3.981h-.099c-1.856,3.14-5.247,4.64799-8.71201,4.64799-8.687,0-13.6375-6.62599-13.6375-13.40099,0-6.255,4.4055-13.623,13.6375-13.623,3.564,0,6.856,1.483,8.71201,4.302h.099v-3.61h4.827v25.689h-4.827v-.024Z"/><path class="c" d="m141.58,109.42228c-.272-2.077-1.535-3.11501-3.29201-3.11501s-3.01999,1.112-3.01999,2.744c0,2.127,1.85699,2.695,3.985,3.338,2.00499.594,7.74699,2.225,7.74699,8.357,0,4.549-3.14301,8.209-8.638,8.209-3.242,0-9.108-2.028-9.108-9.099h4.826c.174,2.868,1.659,4.698,4.356,4.698,2.179,0,3.713-1.36,3.713-3.536s-2.005-3.066-4.505-3.931c-2.772-1.01401-7.227-2.275-7.227-7.73901,0-3.808,3.193-7.417,8.06899-7.417,2.92101,0,7.74701,1.804,7.895,7.516h-4.826l.02501-.02499Z"/><path class="b" d="m50.9429,1.30106c-1.2623.96426-2.5246,2.5961-7.0787,8.50531-1.1633,1.31041-11.0884,12.16461-19.8501,22.27701-7.2273,8.3322-14.801,15.0079-15.04851,16.7139-.17325,1.1621,4.52941,6.2306,7.37571,6.1317,3.9354-.1236,12.3012-6.6756,10.1726-4.401-.7178.816-8.638,10.5575-9.6776,12.3377.0248.0742.0248.2967.0743.3709,1.2375,2.3735,5.3214,4.8955,6.2372,5.4147.1485.0742.693.0742.8415.0494,3.9849-.8653,7.45-5.2416,14.1822-6.6262-.4703,6.9229-6.4104,14.0437-9.2073,20.571-.3712,1.6813-1.089,2.3736-1.089,3.14,0,.717.594,1.0385.594,1.0385,0,0,.5445.717.8168.7912.1732.0741.6435-.1484.792,0,.099.0989-.2228.5686.099.93951.2228.2472,1.6831-.1236,2.0543-.39561.198-.1483.495-.6428.495-.6428,0,0,.198-.51929.7921-.3709.0247-.0989.0742-.272.198-.3214.2722-.0989.594-.3956.6187-.7912,0-.2473.7921-.1237.8168-.0495.1238.4945-.4208.9148-.198.9643.1485.0494,1.4851-2.4478,1.9801-2.967.2722-.4945.8167-1.5824,2.0048-2.2747,3.2176-3.98061,6.6332-11.0025,6.6332-13.87051-.0743-.86539.5445-7.3186-9.8756-12.7086.0248-.0494-.0742-.1483,0-.2966,1.3366-1.6813,5.5937-5.5137,9.1083-9.2471,2.6731-2.8186,6.559-7.1455,6.4352-8.5053-.198-2.4725-4.8016-6.8982-6.5342-6.3543-5.9897,1.8791-9.9746,3.956-11.5091,4.9944-.0743.0495-.1238-.272-.1238-.272,0,0,2.8711-3.5356,5.6927-6.5026,2.2771-2.3983,15.9395-16.4419,17.7711-20.4226.0742-.17307.1485-.93954-.0248-1.16206-2.7721-3.98068-3.2176-5.04385-4.5046-6.30481-.099-.07417-.198-.02472-.198.12362,0,.17307.1237.44505.0742.4945-.2475.22252-.7672-.51922-1.0395-.32142"/></svg>