<?xml version="1.0" encoding="UTF-8" standalone="no"?>
<svg
   xmlns:dc="http://purl.org/dc/elements/1.1/"
   xmlns:cc="http://creativecommons.org/ns#"
   xmlns:rdf="http://www.w3.org/1999/02/22-rdf-syntax-ns#"
   xmlns:svg="http://www.w3.org/2000/svg"
   xmlns="http://www.w3.org/2000/svg"
   viewBox="0 0 544.25336 217.32001"
   height="217.32001"
   width="544.25336"
   xml:space="preserve"
   id="svg2"
   version="1.1"><metadata
     id="metadata8"><rdf:RDF><cc:Work
         rdf:about=""><dc:format>image/svg+xml</dc:format><dc:type
           rdf:resource="http://purl.org/dc/dcmitype/StillImage" /></cc:Work></rdf:RDF></metadata><defs
     id="defs6" /><g
     transform="matrix(1.3333333,0,0,-1.3333333,0,217.32)"
     id="g10"><g
       transform="scale(0.1)"
       id="g12"><path
         id="path14"
         style="fill:#1c4f9c;fill-opacity:1;fill-rule:nonzero;stroke:none"
         d="m 1551.26,1626.57 c 0,0 -58.75,20.13 -78.97,-38.33 L 1052.76,375.84 c 0,0 -20.23,-58.488 38.53,-78.621 l 31.3,-10.707 c 0,0 58.74,-20.121 78.97,38.316 l 419.51,1212.422 c 0,0 20.24,58.47 -38.51,78.6 l -31.3,10.72" /><path
         id="path16"
         style="fill:#1c4f9c;fill-opacity:1;fill-rule:nonzero;stroke:none"
         d="m 1255.29,318.691 c 232.72,0 421.38,188.297 421.38,420.575 0,232.277 -188.66,420.564 -421.38,420.564 -232.73,0 -421.38,-188.287 -421.38,-420.564 0,-232.278 188.65,-420.575 421.38,-420.575" /><path
         id="path18"
         style="fill:#f4f4f4;fill-opacity:1;fill-rule:nonzero;stroke:none"
         d="m 998.5,1008.07 c 19.09,22.09 41.31,35.91 65.64,50.94 24.31,15.08 50.32,26.95 77.15,35.74 26.91,8.54 54.64,13.98 82.56,16.08 27.91,2.15 53.4,3.71 80.74,-2.03 2.31,-0.5 4.55,-1.85 4.38,-3.87 -0.12,-1.72 -4.12,-2.19 -4.12,-2.19 -28.59,-2.42 -53.43,-4.61 -79.98,-9.43 -26.5,-4.83 -52.37,-11.58 -77.82,-19.67 -25.42,-8.23 -50.42,-17.92 -74.87,-29.78 -24.47,-11.93 -45.92,-25.32 -70.32,-41.55 0,0 -4.45,-2.451 -5.786,-0.8 -1.34,1.69 2.426,6.56 2.426,6.56" /><path
         id="path20"
         style="fill:#ffffff;fill-opacity:1;fill-rule:nonzero;stroke:none"
         d="m 1419.07,1334.51 c -50.63,-146.27 -63.54,-177.92 -56.75,-180.19 6.66,-2.25 16.59,30.32 67.23,176.61 50.64,146.25 95.32,263.86 86.45,266.62 -9.29,2.91 -46.28,-116.77 -96.93,-263.04" /><path
         id="path22"
         style="fill:#1c4f9c;fill-opacity:1;fill-rule:nonzero;stroke:none"
         d="m 2006.68,785.191 c 0,58.391 -37.49,102.317 -106.44,102.317 h -31.45 c -91.92,0 -126.4,-31.297 -142.72,-122.766 L 1689.17,556.5 v -2.418 c 0,-5.41 3.03,-10.23 9.08,-10.23 h 56.84 c 6.65,0 12.7,6.019 13.91,12.648 l 36.9,208.242 c 7.26,41.516 15.73,56.574 50.8,56.574 h 33.87 c 29.64,0 37.5,-15.058 37.5,-34.316 0,-7.219 -1.22,-14.461 -2.42,-22.258 L 1888.75,556.5 v -2.418 c 0,-5.41 3.02,-10.23 9.08,-10.23 h 56.85 c 6.65,0 12.7,6.019 13.91,12.648 l 35.68,202.219 c 1.82,9.035 2.41,18.054 2.41,26.472 m 336.26,-16.257 c 0,63.214 -38.1,118.574 -120.95,118.574 -94.95,0 -151.8,-45.137 -171.16,-149.863 l -9.08,-48.719 c -1.8,-9.653 -2.41,-19.278 -2.41,-28.918 0,-63.176 38.7,-120.957 120.95,-120.957 94.96,0 151.81,50.551 170.56,149.875 l 9.08,48.719 c 1.81,10.234 3.01,21.074 3.01,31.289 m -80.42,-4.817 c 0,-7.793 -0.62,-16.844 -2.43,-26.472 l -9.07,-48.719 c -10.3,-55.988 -36.29,-81.278 -78.63,-81.278 -35.69,0 -53.22,19.262 -53.22,54.762 0,7.844 0.6,16.863 2.42,26.516 l 9.07,48.719 c 10.89,59.582 42.34,81.25 79.24,81.25 35.69,0 52.62,-19.258 52.62,-54.778 m 572.12,34.328 c 0,56.563 -32.65,89.063 -103.43,89.063 h -14.51 c -32.05,0 -64.1,-7.227 -85.26,-23.465 -15.73,15.027 -40.53,23.465 -75.01,23.465 h -14.52 c -76.8,0 -127.61,-28.899 -142.73,-114.969 L 2361.07,556.5 v -2.418 c 0,-5.41 3.04,-10.23 9.1,-10.23 H 2427 c 6.67,0 12.71,6.019 13.91,12.648 l 38.11,216.039 c 7.26,40.945 22.99,48.777 50.81,48.777 h 14.5 c 26.61,0 33.88,-12.05 33.88,-28.293 0,-6.023 -1.21,-13.242 -2.42,-20.484 L 2537.69,556.5 v -2.418 c 0,-5.41 3.01,-10.23 9.07,-10.23 h 57.46 c 6.64,0 12.7,6.019 13.91,12.648 l 38.11,216.039 c 6.04,33.719 13.3,48.777 48.37,48.777 h 14.5 c 27.83,0 36.3,-10.234 36.3,-28.293 0,-6.023 -1.21,-12.632 -2.42,-20.484 L 2714.89,556.5 v -2.418 c 0,-5.41 3.03,-10.23 9.07,-10.23 h 56.85 c 6.67,0 12.7,6.019 13.91,12.648 l 36.9,210.043 c 1.81,11.434 3.02,21.656 3.02,31.902" /><path
         id="path24"
         style="fill:#ffffff;fill-opacity:1;fill-rule:nonzero;stroke:none"
         d="m 1117.05,871.863 v 1.203 c 0,5.411 -4.24,10.223 -10.29,10.223 h -85.28 l 10.89,58.984 v 1.809 c 0,5.406 -3.03,10.223 -8.46,10.223 h -1.83 l -58.049,-9.629 c -6.648,-1.199 -12.699,-5.41 -13.914,-12.031 L 896.293,629.309 c -1.211,-7.809 -1.82,-14.418 -1.82,-21.047 0,-49.352 35.683,-69.211 81.648,-69.211 25.409,0 56.249,2.398 71.369,4.801 7.86,1.218 12.09,4.82 13.31,10.847 l 6.65,37.301 v 1.82 c 0,5.41 -5.44,7.2 -10.88,7.2 h -47.78 c -24.188,0 -33.278,3.011 -33.278,17.468 0,3.012 0.609,6.621 1.226,10.821 l 34.462,194.41 h 85.28 c 6.65,0 13.31,5.422 14.52,12.031 l 6.05,35.508 z m 212.28,7.207 c 0,7.239 -9.08,8.438 -15.73,8.438 -52.01,0 -84.67,-4.817 -125.8,-17.461 -11.49,-3.613 -18.75,-10.227 -19.96,-18.035 L 1115.83,556.5 v -2.418 c 0,-5.41 3.63,-10.23 9.68,-10.23 h 56.24 c 6.66,0 12.7,6.019 13.92,12.648 l 45.96,260.004 c 15.13,2.996 39.92,4.207 59.88,4.207 13.91,0 18.14,4.211 19.35,10.832 l 8.47,45.73 z M 1640.8,768.934 c 0,63.214 -38.11,118.574 -120.96,118.574 -94.96,0 -151.8,-45.137 -171.16,-149.863 l -9.08,-48.719 c -1.8,-9.653 -2.41,-19.278 -2.41,-28.918 0,-63.176 38.71,-120.957 120.95,-120.957 94.97,0 151.81,50.551 170.56,149.875 l 9.07,48.719 c 1.82,10.234 3.03,21.074 3.03,31.289 m -80.44,-4.817 c 0,-7.793 -0.6,-16.844 -2.42,-26.472 l -9.07,-48.719 c -10.29,-55.988 -36.29,-81.278 -78.63,-81.278 -35.67,0 -53.21,19.262 -53.21,54.762 0,7.844 0.6,16.863 2.4,26.516 l 9.09,48.719 c 10.87,59.582 42.33,81.25 79.22,81.25 35.68,0 52.62,-19.258 52.62,-54.778" /><path
         id="path26"
         style="fill:#1c4f9c;fill-opacity:1;fill-rule:nonzero;stroke:none"
         d="m 473.559,798.445 c 0,56.563 -32.661,89.063 -103.422,89.063 h -14.516 c -32.047,0 -64.105,-7.227 -85.277,-23.465 -15.731,15.027 -40.516,23.465 -74.989,23.465 h -14.527 c -76.801,0 -127.6053,-28.899 -142.7225,-114.969 L 0,556.5 v -2.418 c 0,-5.41 3.01953,-10.23 9.06641,-10.23 H 65.9258 c 6.6484,0 12.7031,6.019 13.9023,12.648 l 38.1059,216.039 c 7.261,40.945 22.98,48.777 50.796,48.777 h 14.528 c 26.609,0 33.867,-12.05 33.867,-28.293 0,-6.023 -1.211,-13.242 -2.43,-20.484 L 176.602,556.5 v -2.418 c 0,-5.41 3.015,-10.23 9.066,-10.23 h 57.469 c 6.644,0 12.691,6.019 13.902,12.648 l 38.102,216.039 c 6.047,33.719 13.312,48.777 48.379,48.777 h 14.515 c 27.824,0 36.297,-10.234 36.297,-28.293 0,-6.023 -1.219,-12.632 -2.43,-20.484 L 353.805,556.5 v -2.418 c 0,-5.41 3.019,-10.23 9.07,-10.23 h 56.848 c 6.656,0 12.703,6.019 13.914,12.648 l 36.894,210.043 c 1.813,11.434 3.028,21.656 3.028,31.902 m 335.644,-34.328 c 0,70.442 -38.105,123.391 -118.535,123.391 -92.531,0 -152.41,-41.531 -172.371,-154.082 l -6.652,-37.305 c -2.415,-12.637 -3.024,-25.281 -3.024,-36.113 0,-90.867 65.324,-120.957 119.149,-120.957 54.433,0 81.039,3.008 121.562,10.23 11.492,1.797 13.305,6.008 15.121,15.641 l 7.25,39.719 v 2.41 c 0,5.418 -4.226,6.629 -9.066,6.629 h -2.418 c -26.008,-2.418 -67.735,-6.629 -111.891,-6.629 -44.75,0 -61.683,21.66 -61.683,54.168 0,8.429 1.812,16.25 3.019,24.668 h 197.172 c 8.453,0 12.695,5.429 14.508,15.058 l 4.84,28.875 c 1.808,11.45 3.019,23.481 3.019,34.297 m -78.621,1.223 c 0,-7.832 -1.211,-15.039 -2.422,-22.879 H 599.949 c 7.864,43.934 30.231,76.434 78.621,76.434 33.266,0 52.012,-18.653 52.012,-53.555" /><path
         id="path28"
         style="fill:#fcd13b;fill-opacity:1;fill-rule:nonzero;stroke:none"
         d="m 2006.95,458.949 c -14.25,18.09 -31.41,-4.699 -46.91,-21.41 C 1781.75,245.5 1490.78,93.3516 1243.94,93.2695 997.109,93.3516 706.129,245.5 527.836,437.539 c -15.508,16.711 -32.648,39.5 -46.914,21.41 -15.617,-19.84 22.879,-62.828 22.879,-62.828 C 685.348,153.172 949.547,0.128906 1243.75,0 c 0,0 0.31,0 0.38,0 v 0 c 294.2,0.128906 558.4,153.172 739.95,396.121 0,0 38.5,42.988 22.87,62.828" /><path
         id="path30"
         style="fill:#1c4f9c;fill-opacity:1;fill-rule:nonzero;stroke:none"
         d="m 2142.73,266.379 c 1.32,-3.207 2.11,-5.25 2.32,-6.109 0.44,-1.758 1.3,-2.782 2.61,-3.059 1.36,-2.781 4.18,-4.992 8.46,-6.563 1.81,-1.179 2.86,-1.968 3.11,-2.398 1.45,-0.148 2.62,-0.27 3.51,-0.32 0.87,-0.071 1.59,-0.2 2.17,-0.348 3.49,-0.422 5.51,-0.953 6.05,-1.512 2.79,-0.14 4.24,-0.281 4.39,-0.449 4.5,-0.59 8.56,1.961 12.16,7.649 l 4.59,7 c 1.09,2.339 1.78,3.812 2.06,4.468 0.26,0.684 1,1.762 2.17,3.383 0.49,0.59 1.35,1.891 2.58,3.938 0.76,-1.297 0.97,-2.27 0.62,-2.829 0.33,-2.91 0.7,-4.582 1.09,-5.05 0.21,-4.219 0.51,-6.758 0.87,-7.641 0.65,-4.379 1.23,-7 1.74,-7.859 1.88,-2.051 4,-3.371 6.38,-4.039 2.36,-0.653 3.95,-0.801 4.72,-0.422 0.75,0.351 2.88,0.961 6.35,1.851 7.04,1.289 8.84,5.95 5.42,13.969 l 0.1,1.09 c -1.21,3.051 -1.71,5.68 -1.53,7.859 l -1.37,14.223 c -1.26,7.578 -1.51,12.641 -0.76,15.187 0.73,2.551 1.53,6.141 2.39,10.813 0.86,4.668 1.38,8.168 1.59,10.488 l 2.15,9.41 c -0.02,1.289 0.2,2.981 0.69,5.02 0.53,1 1.1,3.012 1.74,6.031 0.61,2.969 1.55,6.34 2.76,10.129 1.22,3.781 1.89,6.191 1.97,7.223 1.72,6.117 2.62,9.699 2.7,10.687 1.61,4.821 1.71,8.461 0.31,10.93 -0.8,2.641 -2.05,4.223 -3.77,4.812 -4.53,0.297 -7.44,0.321 -8.72,0.098 -1.27,-0.207 -2.27,-0.309 -3.01,-0.309 l -5.6,-3.519 c -0.71,-1.441 -1.36,-2.91 -1.93,-4.352 -0.57,-1.468 -1.22,-2.839 -1.92,-4.148 -0.71,-1.313 -0.87,-2.422 -0.51,-3.27 -0.03,-0.461 -0.15,-0.882 -0.33,-1.332 -0.19,-0.429 -0.33,-0.859 -0.46,-1.187 -0.09,-0.383 -0.25,-0.82 -0.45,-1.434 -0.18,-0.429 -0.2,-0.578 -0.04,-0.429 -3.35,-6.278 -5.18,-11.297 -5.52,-15.09 -1.55,-2.469 -2.34,-3.93 -2.38,-4.348 -0.25,-2.922 -0.8,-5.351 -1.63,-7.332 -0.84,-1.949 -1.33,-3.391 -1.49,-4.25 -0.15,-0.891 -0.3,-1.328 -0.45,-1.328 0.05,-1.172 -0.05,-3.121 -0.29,-5.879 -1.01,-3.082 -1.57,-4.973 -1.62,-5.703 -1.4,-2.309 -2.11,-3.93 -2.2,-4.797 l -1.8,-5.461 -4.28,-10.93 c -0.35,-0.73 -1.25,-2.152 -2.69,-4.25 -1.45,-2.132 -2.21,-3.742 -2.31,-4.929 l -0.91,-2.614 -2.81,-4.378 c -1.3,-2.911 -2.23,-4.348 -2.81,-4.348 l -1.19,-3.293 c -0.17,-0.289 -0.73,-0.891 -1.68,-1.75 -3.29,-2.199 -5.77,-2.59 -7.41,-1.188 -1.64,1.368 -2.42,4.25 -2.33,8.61 -0.08,13.988 0.3,21.629 1.14,22.937 1.04,3.512 1.75,6.481 2.12,8.942 0.33,2.05 0.74,3.289 1.22,3.742 0.04,0.449 0.31,1.308 0.79,2.629 0.48,1.301 0.88,3.14 1.15,5.57 0.29,2.41 0.53,4.18 0.69,5.348 0.19,1.152 0.33,2.41 0.45,3.722 l 0.92,5.469 0.36,4.121 c 0.72,3.09 1.2,6.059 1.46,8.957 1.39,5.852 2.17,9.492 2.3,10.934 2.96,15.308 2.79,23.398 -0.52,24.258 -2.43,0.73 -4.11,1.308 -5.02,1.761 -0.93,0.45 -2.78,0.731 -5.58,0.868 -2.78,0.14 -4.63,-0.071 -5.56,-0.661 l 0.23,0.243 c -3.49,-1.321 -5.61,-2.731 -6.33,-4.18 -2.48,-6.25 -3.49,-10.332 -3.07,-12.231 -0.91,-2.039 -1.59,-4.66 -2.03,-7.878 -0.52,-2.622 -1.57,-7.043 -3.15,-13.321 l -0.34,-3.711 c -1.15,-4.789 -1.91,-9.23 -2.28,-13.332 -0.78,-2.179 -1.32,-5.066 -1.64,-8.609 -0.32,-3.57 -0.4,-5.418 -0.28,-5.598 -0.64,-2.461 -1.11,-4.222 -1.35,-5.222 -0.04,-2.047 -0.17,-3.887 -0.4,-5.559 -0.21,-1.691 -0.29,-3.891 -0.23,-6.578 0.05,-2.711 -0.05,-5.391 -0.29,-8.09 -0.22,-2.691 -0.44,-4.32 -0.64,-4.891 0.17,-3.07 0.14,-5.55 -0.1,-7.441 -0.26,-1.922 -0.21,-3.961 0.11,-6.141 0.33,-2.168 0.75,-3.57 1.29,-4.148 z m 158.32,-5.891 c 0.25,-2.027 0.88,-3.949 1.91,-5.687 l 3.03,-3.289 c 1.73,-1.891 3.55,-3.051 5.42,-3.473 3.82,-0.309 6.48,-0.18 7.98,0.313 1.53,0.507 2.39,0.636 2.58,0.437 0.2,-0.219 1.85,0.402 4.93,1.859 2.03,1.301 2.63,3.063 1.79,5.274 -2.15,3.898 -3.2,6.769 -3.11,8.598 0.08,1.832 -0.46,4.41 -1.63,7.742 l -0.37,8.328 c 0.07,0.871 0.12,3.84 0.13,8.949 -0.01,1.602 0.17,4.449 0.53,8.512 0.35,4.097 0.66,6.738 0.92,8.008 0.25,1.222 0.53,2.632 0.83,4.23 1.98,10.801 2.22,17.652 0.72,20.551 -0.56,0.281 -1.3,0.949 -2.16,1.969 -0.87,1.031 -1.65,1.781 -2.35,2.179 -0.69,0.453 -1.94,1.391 -3.72,2.852 -1.79,1.461 -3.42,2.18 -4.88,2.18 -1.47,0 -2.62,-0.36 -3.42,-1.098 -8.91,-4.211 -19.74,-16.66 -32.47,-37.352 0.45,8.461 0.92,14.051 1.38,16.828 0.47,2.762 0.82,7.274 1.09,13.551 0.34,3.781 -0.58,5.891 -2.75,6.332 -3.12,1.321 -5.7,2.188 -7.71,2.617 -1.35,0 -3.02,-0.578 -5.03,-1.738 -3.63,-1.031 -5.7,-1.961 -6.22,-2.851 -0.52,-0.868 -0.81,-1.719 -0.88,-2.618 -0.09,-0.882 0.01,-1.562 0.25,-2.082 0.26,-0.519 -0.01,-4.379 -0.8,-11.558 -0.78,-7.231 -1.18,-12.512 -1.18,-15.871 0.03,-3.039 -0.04,-5.621 -0.23,-7.629 l -1.61,-17.93 -0.39,-12.019 -0.27,-3.071 c -0.26,-3.043 -0.14,-4.953 0.39,-5.679 0.81,-2.332 2.92,-3.622 6.27,-3.942 h 2.88 l 1.56,0.219 c 0.44,0 2.62,-0.418 6.52,-1.297 1.92,0 3.57,1.227 4.96,3.707 2.39,13.711 7.11,25.43 14.17,35.191 0.67,1.02 1.18,1.739 1.52,2.192 3.9,4.207 6.74,6.316 8.52,6.316 -0.17,-0.136 -0.33,-1.008 -0.45,-2.609 l -1.74,-9.617 c -0.19,-2.18 -0.05,-4.66 0.44,-7.422 l 1.13,-14.629 1,-3.75 c -0.32,-0.422 -0.16,-1.012 0.52,-1.723 m 97.23,130.231 c -1.06,1.472 -2.82,2.402 -5.29,2.82 -5.93,1.031 -10,0.152 -12.16,-2.598 -0.84,-1.191 -1.85,-3.441 -3.03,-6.769 -2.96,-6.871 -4.66,-12.024 -5.13,-15.531 -0.22,-1.012 -0.64,-1.993 -1.23,-2.942 -0.61,-0.961 -1.28,-3.09 -2.02,-6.429 -0.48,-0.469 -0.87,-2.508 -1.2,-6.161 -4.6,-1.89 -8.29,-2.82 -11.08,-2.82 -6.45,-1.148 -10.52,-2.32 -12.24,-3.508 -1.71,-1.16 -1.87,-3.679 -0.46,-7.621 2.18,-3.64 6.51,-5.469 13,-5.469 1.45,-0.293 3.28,-0.293 5.51,0 h 2.66 c 0.15,0 0.06,-0.711 -0.2,-2.179 l -0.17,-1.973 0.01,-4.82 c 0.42,-5.231 0.38,-10.699 -0.12,-16.379 0.22,-4.09 0.36,-8.442 0.39,-13.11 0.03,-4.691 0.51,-7.511 1.45,-8.519 l -0.27,-3.07 c 0.19,-1.153 0.27,-1.891 0.26,-2.18 0.52,-5.691 1.53,-9.332 3.01,-10.922 0.24,-2.32 0.48,-3.73 0.73,-4.16 l 3.31,-10.039 c 1.48,-1.61 2.21,-2.559 2.18,-2.852 2.29,-2.488 4.08,-3.789 5.4,-3.949 4.66,-0.578 7.58,-0.859 8.76,-0.859 6.77,0 10.08,2.461 9.94,7.441 l -1.36,4.59 c -0.62,4.648 -1.31,7.648 -2.09,8.949 -1.91,13.391 -3.25,26.5 -4.04,39.34 l 0.05,8.09 c 0.16,1.73 0.24,4.801 0.27,9.172 0.01,4.359 0.12,8.41 0.29,12.019 l 6.16,2.188 10.14,2.39 7.85,1.09 c 2.25,0.59 4.05,1.832 5.4,3.711 l 0.99,1.309 c 1.49,1.613 2.14,3.269 2,5.031 0.21,2.18 -0.2,3.859 -1.21,5.02 -1.01,1.152 -3.02,1.761 -6.03,1.878 -3.01,0.063 -6.38,-0.257 -10.14,-1.007 -3.75,-0.7 -5.91,-1.09 -6.49,-1.09 l -7.87,-1.539 c 0.25,1.34 0.45,2.629 0.56,3.929 l 0.41,4.61 0.35,1.519 0.52,5.7 c 0.25,1.3 0.46,2.8 0.62,4.468 0.15,1.692 0.57,4.344 1.25,7.973 0.69,3.641 0.81,5.398 0.36,5.258 m 71.08,-83.028 c -2.05,-1.472 -3.82,-2.23 -5.3,-2.3 -1.48,-0.09 -3.37,0.187 -5.66,0.75 0.03,0.468 1.12,3.73 3.28,9.828 h 0.22 c 1.55,4.23 3.67,8.101 6.34,11.613 2.13,4.059 4.29,6.109 6.51,6.109 1.76,0 3.13,-0.461 4.07,-1.312 0.45,-3.34 0.27,-6.117 -0.51,-8.309 -2.31,-7.711 -5.3,-13.172 -8.95,-16.379 m 15.65,-7.882 c 1.81,2.191 4.92,7.441 9.33,15.75 1.77,3.363 2.87,7.363 3.28,12.023 0.42,4.629 -1.44,9.547 -5.55,14.617 -1.89,2.039 -4.98,3.742 -9.27,5.012 -1.99,1.039 -4.59,1.68 -7.79,2 h -2.87 c -0.29,0 -0.8,0.07 -1.53,0.211 l -6.25,-0.883 c -1.05,0 -2.64,-0.5 -4.78,-1.508 -1.82,-0.609 -3.23,-1.543 -4.24,-2.859 l -3.1,-2.602 c -1.2,-1.91 -1.91,-3.218 -2.13,-3.941 -2.43,-2.641 -4.26,-5.027 -5.47,-7.231 l -4.21,-7.648 c -2.44,-5.66 -3.88,-8.949 -4.31,-9.809 -0.45,-0.89 -0.7,-1.679 -0.76,-2.402 -0.07,-0.738 -0.2,-1.328 -0.38,-1.777 l -0.17,-1.953 c -0.8,-0.739 -1.64,-2.629 -2.5,-5.668 -0.47,-2.2 -0.81,-3.36 -0.97,-3.512 l 0.06,-1.981 c -0.62,-1.878 -0.87,-3.128 -0.77,-3.707 l -0.14,-1.5 0.04,-1.98 -0.5,-5.691 c -0.42,-1.461 -0.35,-2.321 0.22,-2.641 l -0.16,-1.707 c -0.11,-1.332 0.23,-2.402 1.03,-3.293 0.83,-0.609 1.21,-1.379 1.11,-2.418 l 0.73,-1.742 c -0.1,-1.18 0.1,-2.117 0.64,-2.848 -0.04,-2.043 0.25,-3.34 0.86,-3.941 0.62,-0.559 1.31,-1.508 2.06,-2.821 0.26,-0.437 1.27,-1.468 3.06,-3.058 1.96,-2.781 3.23,-4.321 3.79,-4.59 0.57,-0.281 1.21,-0.789 1.96,-1.551 0.74,-0.711 2.96,-1.789 6.66,-3.269 0.59,0 1.61,-0.43 2.99,-1.309 0.83,-0.57 1.91,-0.852 3.23,-0.852 l 1.75,-0.242 c 0.6,0.141 1.48,0.071 2.63,-0.207 0.4,-0.422 1.19,-0.742 2.36,-0.871 5.25,-0.582 10.36,0.559 15.32,3.481 1.7,0.871 3.17,2.429 4.39,4.597 2.3,2.633 4.52,5.821 6.71,9.602 2.17,3.82 3.32,6.422 3.46,7.879 l 0.12,1.293 c 0.8,0.758 1.22,1.398 1.28,1.976 0.09,1.184 -1.31,2.782 -4.23,4.801 -2.94,1.621 -7.77,-1.379 -14.49,-8.949 -1.31,0.16 -2.1,-0.43 -2.37,-1.731 -0.52,-1.031 -1.11,-1.859 -1.75,-2.398 -2.01,-1.18 -3.61,-1.781 -4.78,-1.781 -1.18,0 -2.64,0.351 -4.34,1.109 -5.98,3.77 -8.67,11.731 -8.04,23.813 l -0.3,4.16 c 2.57,-0.883 6.15,-1.321 10.71,-1.321 l 8.22,0.68 c 3.69,0 7.07,2.399 10.15,7.188 m 26.36,-34.321 c 0.05,-0.84 0.05,-1.726 -0.02,-2.597 l 0.98,-3.711 2.34,-3.508 c 1.69,-2.492 3.75,-4.223 6.17,-5.231 l 3,-1.113 c 2.2,-1.746 4.17,-1.969 5.9,-0.648 1.73,1.3 2.89,2.64 3.44,3.949 1.04,3.332 4.2,20.66 9.46,51.98 0.64,0.473 3.99,2.641 10.08,6.582 l 6.92,3.289 c 7.76,4.34 12.96,6.54 15.6,6.54 2.82,0.3 4.99,1.378 6.5,3.269 0.72,1.621 0.48,3.063 -0.72,4.371 0.13,0 0.07,0.52 -0.21,1.531 -0.27,1.028 -0.54,1.797 -0.78,2.309 -0.26,0.512 -1.78,1.629 -4.58,3.371 -0.99,0.438 -2.45,0.649 -4.35,0.649 -1.91,0 -4.31,-0.34 -7.16,-0.981 -2.86,-0.648 -4.74,-0.949 -5.61,-0.949 -6.24,-2.211 -10.31,-4.192 -12.24,-5.93 0.44,4.961 0.09,7.649 -1.05,8.07 -0.82,0.75 -2.22,1.481 -4.21,2.192 -1.37,1.187 -2.99,2.039 -4.86,2.648 -5.2,1.149 -9.03,0.27 -11.49,-2.648 -1.43,-2.774 -1.98,-5.524 -1.64,-8.301 -0.15,-1.75 -0.14,-4.141 0.03,-7.191 l -0.84,-4.61 -0.4,-4.34 c -0.53,-6.14 -1.04,-9.398 -1.52,-9.871 l -1.65,-6.089 c -0.04,-0.598 -2.31,-10.36 -6.77,-29.29 z m 104.62,51.602 c 0.04,0.43 0.06,0.73 0.06,0.871 l 1.64,8.519 c 1.51,8.579 0.17,13.469 -4,14.649 l -7.55,2.152 c -1.45,0.18 -2.75,0.571 -3.85,1.231 -1.13,0.648 -2.67,0.668 -4.64,0.109 -3.99,-3.351 -6,-5.383 -6.05,-6.121 -1.41,-2.48 -1.94,-4.309 -1.6,-5.461 -0.53,-1.019 -0.5,-4.82 0.1,-11.367 1.03,-3.352 1.38,-5.961 1.07,-7.871 0.46,-1.59 0.65,-5.11 0.61,-10.481 -0.28,-3.218 -0.34,-5.539 -0.17,-7 -0.21,-2.48 -0.13,-4.019 0.27,-4.59 -0.44,-1.48 -0.44,-3.66 -0.03,-6.558 0.39,-2.922 0.86,-4.641 1.41,-5.242 l -0.17,-1.981 c -0.04,-0.418 0.46,-2.179 1.52,-5.238 1.04,-4.961 1.96,-7.859 2.76,-8.742 1.07,-2.91 2.38,-5.59 3.93,-8.047 0.58,-1.793 1.7,-3.231 3.37,-4.41 1.15,-0.282 2.23,-0.442 3.28,-0.442 l 2.66,0.25 c 4.22,-0.601 7.69,-0.531 10.4,0.192 2.71,0.578 4.58,1.41 5.64,2.398 1.04,1.051 1.61,2.012 1.68,2.879 0.35,0.563 0.59,1.18 0.71,1.84 0.13,0.633 0.33,1.16 0.58,1.531 0.25,0.34 0.86,1.77 1.81,4.262 0.06,0.707 1.26,4.289 3.6,10.707 0.1,-3.789 0.29,-5.758 0.58,-5.899 0.15,-3.332 0.49,-5.468 0.99,-6.339 0.27,-0.282 1.2,-1.403 2.8,-3.289 l 3.2,-1.301 c 2.16,-0.602 3.9,-1.512 5.27,-2.852 0.26,-0.437 1.45,-1.058 3.59,-1.859 2.14,-0.801 4.26,-1.039 6.34,-0.758 2.07,0.148 3.5,0.598 4.31,1.297 2.11,0.461 3.74,1.543 4.94,3.293 3.37,3.066 5.09,5.187 5.19,6.34 2.6,7.859 4.07,12.82 4.41,14.859 0.48,0.598 0.78,1.379 0.86,2.391 1.28,4.226 3.72,16.769 7.31,37.59 1.59,6.257 2.53,10.269 2.84,12.019 0.33,2.188 0.66,4.149 0.97,5.899 l -2.6,0.679 c -1.77,0 -3.13,0.36 -4.1,1.082 h -5.53 c -2.2,0.141 -3.81,-0.179 -4.83,-0.992 -1.03,-0.789 -1.77,-2.16 -2.24,-4.059 l -2.36,-6.75 -1.74,-9.609 -6.19,-22.531 -2.72,-5.879 c -0.34,-3.813 -0.98,-6.141 -1.94,-7 0,-1.602 -0.42,-2.981 -1.25,-4.152 -1.87,9.023 -2.64,16.101 -2.33,21.211 0.08,15.851 -0.24,24.839 -0.95,26.878 l -0.53,3.911 c -0.86,2.07 -1.25,3.351 -1.19,3.921 -0.92,1.481 -1.32,2.641 -1.25,3.5 -1.92,-0.128 -6.03,-0.652 -12.28,-1.511 -0.67,-0.879 -1.09,-2.309 -1.28,-4.379 l -1.88,-8.949 c 0.25,-2.051 0.18,-3.653 -0.21,-4.801 -0.4,-1.18 -0.88,-3.238 -1.44,-6.25 -0.55,-2.969 -1.64,-6.469 -3.24,-10.481 -1.6,-4.007 -2.76,-6.75 -3.48,-8.187 -0.87,-1.453 -1.32,-2.41 -1.37,-2.832 l -4.1,-11.391 c -0.14,-1.57 -0.52,-2.949 -1.14,-4.129 -0.62,-1.179 -1,-2.558 -1.13,-4.16 l -0.93,1.961 c -0.84,7.277 -0.98,13.969 -0.43,20.109 l 0.28,8.301 0.63,7 1.04,9.168 z m 126.29,-8.328 c -4.02,-5.512 -8.49,-7.703 -13.39,-6.543 1.4,10.801 5.52,20.883 12.41,30.383 1.01,1.589 2.38,2.457 4.1,2.617 1.68,0.152 2.67,-0.16 2.9,-0.879 1.81,-2.758 -0.2,-11.281 -6.02,-25.578 m -17.33,-61.18 5.88,-3.273 h 2.65 l -0.46,-0.239 c 1.29,-0.422 2.35,-0.66 3.15,-0.738 0.81,-0.07 1.18,-0.281 1.16,-0.543 3.47,-0.867 5.96,-0.937 7.49,-0.219 2.73,-0.609 4.8,-0.808 6.13,-0.648 0.88,0 3.71,1.129 8.48,3.488 2.69,2.32 5.33,5.238 7.85,8.719 3.13,5.402 4.94,8.992 5.48,10.832 0.52,1.828 0,3.68 -1.61,5.578 -3.46,4.051 -7.25,3.633 -11.38,-1.309 l -6.37,-7.019 c -1.44,-1.43 -3.67,-2.422 -6.68,-2.949 -2.97,-0.492 -5.32,-0.383 -7.02,0.34 -1.7,0.738 -3.99,2.257 -6.9,4.578 -1.06,1.308 -2.25,4.922 -3.56,10.82 -1.32,5.922 -1.82,10.48 -1.54,13.68 2.72,-0.739 4.82,-1.09 6.31,-1.09 1.47,0 2.41,-0.078 2.85,-0.219 h 5.07 c 1.91,0 3.18,0.141 3.8,0.418 1.17,0 3.49,1.18 6.94,3.512 2.28,2.469 4.7,5.758 7.27,9.84 3.54,6.55 5.55,11.07 6.07,13.531 0.51,2.457 1.14,5.527 1.92,9.18 0.27,8.168 -0.82,14.207 -3.27,18.148 l -0.56,1.102 c -1.95,3.046 -7.24,5.57 -15.9,7.609 -3.61,0.898 -5.93,1.25 -6.95,1.109 -5.12,-1.179 -7.71,-1.898 -7.73,-2.172 -3.83,-1.757 -7.54,-4.527 -11.1,-8.296 l -4,-5.043 c -0.49,-2.18 -1.44,-3.93 -2.88,-5.239 -5.97,-10.941 -9.32,-17.769 -10.01,-20.531 -0.61,-2.07 -1.09,-5.269 -1.4,-9.617 -0.31,-4.371 -0.37,-7.043 -0.15,-7.992 0.2,-0.95 0.77,-4.7 1.66,-11.25 0.71,-1.75 1.01,-3.801 0.77,-6.141 l 2.28,-12.008 c 3.75,-5.679 6.37,-9.472 7.82,-11.371 0.37,-0.711 0.99,-1.09 1.88,-1.09 l 2.85,-3.031 2.15,-0.457 z m 87.52,58.129 c 0.24,2.629 1.27,5.828 3.07,9.621 0.89,1.758 1.44,3.719 1.62,5.918 1.58,4.5 3.75,7.262 6.5,8.289 2.04,-1.758 3.37,-3.391 3.98,-4.918 0.6,-1.531 1.56,-2.949 2.93,-4.269 2.49,-3.34 3.57,-6.813 3.17,-10.352 -0.39,-3.609 -0.63,-5.82 -0.71,-6.68 -2.62,-4.8 -5.86,-11.379 -9.69,-19.679 l -7.13,-10.7 c -0.86,-1.453 -2.18,-3.152 -3.98,-5.031 -0.97,0.731 -1.53,1.34 -1.7,1.86 -0.18,0.5 -0.6,1.14 -1.28,1.851 -1.33,3.219 -1.72,8.02 -1.15,14.41 0.62,3.668 1.43,7.16 2.47,10.52 0.26,2.898 0.89,5.949 1.9,9.16 m 47.43,16.617 c -0.16,6.711 -0.51,11.863 -1.06,15.512 -0.97,3.93 -3.17,5.781 -6.59,5.441 -1.47,-0.14 -2.64,0 -3.49,0.469 -2.63,0.281 -4.25,0.281 -4.86,0 -2.12,-0.719 -3.72,-2.051 -4.75,-3.941 -1.31,0.3 -2.39,0.66 -3.22,1.089 -0.85,0.454 -2.79,1.184 -5.78,2.204 -1.39,1.007 -2.82,1.519 -4.29,1.519 -4.72,1.449 -8.53,1.75 -11.4,0.867 l -3.63,-0.867 -2.33,-1.519 c -2.27,-0.762 -3.86,-1.52 -4.74,-2.293 -0.87,-0.829 -2.05,-2.02 -3.52,-3.61 l -3.75,-5.051 c -0.52,-0.847 -1.83,-3.277 -3.95,-7.218 -1.65,-5.09 -2.54,-8.571 -2.7,-10.45 -1.39,-4.121 -2.27,-8.109 -2.62,-12.05 -0.59,-1.731 -1.01,-4.071 -1.29,-6.969 -1.33,-3.52 -1.93,-8.82 -1.83,-15.961 0.06,-4.371 0.26,-6.918 0.64,-7.66 0.38,-0.731 0.64,-1.219 0.76,-1.41 0.13,-0.231 0.48,-0.828 1.06,-1.75 0.57,-0.942 0.84,-1.77 0.78,-2.532 l 2.53,-3.679 c 1.12,-2.199 2.77,-3.739 4.9,-4.617 2.21,-1.731 5.86,-2.891 10.97,-3.493 h 1.32 c 2.94,0 4.98,-0.379 6.09,-1.089 4.17,0.582 7.68,2.691 10.51,6.332 l 2.23,2.867 c 5.67,9.152 8.97,14.691 9.87,16.57 0.33,-1.301 0.3,-4.039 -0.07,-8.277 -1.02,-6.41 -1.53,-11.512 -1.56,-15.313 l -0.58,-6.328 c -0.71,-4.672 -1.09,-7.269 -1.15,-7.859 -0.96,-5.981 -3.49,-11.153 -7.55,-15.5 -1.13,-1.332 -1.87,-2.071 -2.18,-2.211 -2.25,-3.93 -4.89,-6.039 -7.86,-6.332 -1.05,-0.137 -1.89,0.261 -2.54,1.203 -0.64,0.969 -1.31,2.578 -1.99,4.949 -1.21,2.899 -2.01,4.559 -2.42,5.008 -0.69,0.562 -1.91,0.91 -3.67,1.07 -3.47,0.59 -5.71,-0.437 -6.68,-3.058 -1.37,-2.18 -2.14,-3.481 -2.33,-3.922 -0.68,-2.93 -1.19,-4.379 -1.5,-4.379 -0.02,-0.418 -0.04,-1.371 -0.02,-2.84 0.73,-3.371 1.89,-5.301 3.44,-5.91 3.32,-2.469 5.05,-3.692 5.21,-3.692 4.45,-2.929 9.22,-4.386 14.31,-4.386 5.08,0 10.55,1.679 16.44,5.039 1.61,1.461 2.57,2.168 2.86,2.168 l 2.38,1.98 c 5.05,5.692 8.11,9.332 9.15,10.93 0.05,0.582 0.98,2.312 2.78,5.25 1.8,2.891 3.04,5.672 3.71,8.269 3.02,7.582 5.19,18.813 6.5,33.672 0.6,6.559 0.75,13.719 0.48,21.52 -0.27,7.801 -0.36,12.269 -0.26,13.43 -0.41,3.671 -0.46,7.14 -0.17,10.5 z m 30.69,0.871 c 0.16,-0.578 0.09,-1.41 -0.22,-2.519 -0.33,-1.09 -0.48,-2.36 -0.45,-3.809 0,-1.461 0,-2.34 -0.03,-2.641 l -0.36,-4.128 c 0.05,-1.032 0.64,-2.911 1.71,-5.704 0.46,-3.046 1.3,-5.238 2.51,-6.546 1.36,-1.301 2.24,-2.133 2.66,-2.391 3.04,-3.941 7.25,-8.75 12.65,-14.449 l 1.66,-1.082 c 1.78,-1.45 3.33,-3.871 4.66,-7.219 l 1.32,-2.621 c 0.64,-2.762 -1.24,-4.801 -5.62,-6.121 -1.51,-0.438 -2.64,-0.668 -3.38,-0.75 -0.75,-0.098 -1.2,-0.188 -1.36,-0.328 h 0.22 l -4.13,-1.762 c -1.33,-0.149 -2.75,-0.149 -4.19,0 -1.47,0.16 -2.72,0.16 -3.75,0 -1.9,0.312 -3.45,1.082 -4.66,2.402 l -2.75,1.539 c -3.78,2.039 -6.45,1.91 -7.97,-0.422 -0.69,-1.027 -0.97,-1.796 -0.87,-2.308 0.09,-0.512 0.16,-1.852 0.19,-4.039 0.03,-2.18 0.31,-3.641 0.82,-4.391 0.07,0.75 1.37,-1.219 3.91,-5.871 0.1,-0.457 0.52,-0.82 1.22,-1.098 3.36,-2.05 7.39,-3.152 12.09,-3.293 2.66,0 4.35,0.141 5.13,0.422 h 1.75 c 2.66,0 4.58,0.149 5.78,0.34 1.2,0.231 1.87,0.328 2.01,0.328 l 6.78,1.75 c 6.72,2.633 10.25,4.301 10.61,5.024 4.5,2.617 7.13,4.277 7.85,4.929 0.71,0.641 1.81,1.508 3.3,2.508 1.5,1.012 2.31,2.34 2.45,3.942 0.89,1.757 1.37,3.359 1.41,4.789 0.06,1.48 -0.71,3.082 -2.34,4.832 -0.71,1.886 -1.46,3.258 -2.28,4.148 l -7.78,9.371 c -0.74,1.481 -1.54,2.547 -2.36,3.309 -3.47,2.32 -5.42,3.558 -5.86,3.711 l -1.06,2.828 c -1.56,0.891 -2.6,2.332 -3.14,4.359 -0.9,1.614 -2.21,3.594 -3.92,5.903 -0.86,1.898 -1.43,3 -1.69,3.289 -0.27,0.281 -0.35,1.109 -0.22,2.41 -2.16,3.941 -1.95,7.14 0.62,9.609 2.57,2.481 5.12,3.789 7.65,3.949 4.6,-1.179 8.78,-3.796 12.55,-7.878 0.41,-0.43 1.22,-1.231 2.44,-2.399 0.79,-2.633 1.97,-4.391 3.5,-5.25 l 1.99,-0.223 c 2.43,-0.726 4.84,0 7.26,2.192 l 2.35,4.129 c 2.35,4.992 1.09,9.863 -3.79,14.652 -2.46,2.359 -4.39,4.051 -5.84,5.141 -1.46,1.09 -2.7,2.039 -3.72,2.847 -1.03,0.789 -1.83,1.411 -2.37,1.86 -0.55,0.429 -1.33,1.019 -2.28,1.73 -4.03,1.332 -8.1,1.832 -12.25,1.551 -2.6,0.422 -4.13,0.711 -4.57,0.871 -0.42,0.141 -1.07,0.207 -1.95,0.207 h -2.44 c -3.45,-0.719 -5.72,-1.449 -6.82,-2.18 -1.5,-0.308 -3.27,-1.078 -5.29,-2.41 -0.33,-0.289 -1.3,-1.218 -2.9,-2.84 -1.61,-1.597 -2.86,-2.988 -3.69,-4.168 -1,-1.441 -1.54,-2.531 -1.61,-3.261 l 0.07,-1.75 c -0.98,-2.75 -1.38,-4.438 -1.21,-5.02 m 129.25,16.5 c -0.8,-0.808 -1.28,-1.969 -1.42,-3.519 -0.12,-1.508 -0.76,-4.469 -1.88,-8.828 l -0.27,-3.063 c -0.6,-6.84 -0.69,-11.949 -0.25,-15.289 l -0.35,-3.918 c -0.53,-2.652 -0.57,-4.844 -0.13,-6.562 -0.35,-2.2 -0.54,-5.059 -0.55,-8.629 -0.02,-3.602 0.14,-5.95 0.46,-7.121 l -0.33,-3.93 c 0.21,-0.891 0.3,-1.531 0.27,-1.981 l 0.63,-5.238 c 1,-2.18 1.54,-4.293 1.66,-6.332 0.55,-0.437 0.98,-2.258 1.28,-5.469 l 1.88,-3.699 c 0.88,-1.762 2.96,-2.269 6.26,-1.531 l 2.48,0.422 c 4.29,0.297 7.45,2.547 9.43,6.777 l 10.5,26 c 1.32,3.512 4.63,11.02 9.94,22.5 l -0.96,-10.699 -0.55,-11.129 -0.83,-9.422 -0.05,-3.019 c -0.15,-1.622 -0.09,-2.641 0.18,-3.079 l -0.66,-5.031 v -5.019 c 0.41,-3.641 3.14,-5.192 8.19,-4.59 1.83,0.719 3.38,1.097 4.64,1.097 1.23,0 1.99,-0.218 2.25,-0.668 0.88,0 2.01,0.532 3.35,1.641 1.35,1.09 2.3,2.098 2.82,2.961 l 8.98,21.84 c 0.04,0.418 1.42,3.508 4.14,9.168 l 4.19,10.058 0.33,-8.75 -0.44,-5.007 c 0.21,-0.879 0.28,-1.821 0.18,-2.852 -0.08,-1.008 -0.21,-1.527 -0.35,-1.527 0.35,-1.024 0.52,-2.18 0.48,-3.492 -0.06,-1.309 -0.03,-2.59 0.09,-3.829 0.13,-1.23 0.1,-2.5 0,-3.812 0.48,-2.93 0.55,-4.527 0.24,-4.797 0.75,-1.48 1.04,-2.293 0.89,-2.422 -0.59,-1.762 -0.03,-2.91 1.67,-3.488 0.94,-1.024 1.35,-2.211 1.24,-3.5 1.78,-1.32 3.32,-1.813 4.51,-1.524 l 2.07,-1.546 4.5,-1.512 c 1.17,0 2.04,0.101 2.58,0.449 0.54,0.262 0.96,0.481 1.27,0.633 1.85,0.738 2.83,1.887 2.97,3.5 l 0.43,2.168 0.11,1.332 -0.61,5.668 0.21,2.422 c -0.5,2.617 -0.63,5.226 -0.41,7.867 l -0.32,3.703 c 0.1,1.156 -0.19,2.039 -0.87,2.629 l 0.53,6.121 -0.26,1.957 c 0.74,1.91 1.06,3.813 0.95,5.781 -0.12,1.989 -0.39,3.168 -0.79,3.61 0.09,1.019 0.22,2.019 0.37,2.949 0.16,0.949 0.05,1.871 -0.31,2.742 l 0.22,2.399 c -0.05,6.128 -0.09,9.769 -0.15,10.929 l 0.24,2.633 c -0.15,1.598 -0.11,2.898 0.13,3.918 -0.09,0.73 -0.06,1.832 0.07,3.289 l 0.2,2.402 c -1.45,1.758 -2.76,2.688 -3.84,2.84 -1.09,0.141 -1.61,0.348 -1.6,0.641 -0.71,0.316 -1.49,0.449 -2.38,0.449 -4.54,2.051 -7.94,1.981 -10.2,-0.211 -2.67,-0.461 -4.09,-1.23 -4.18,-2.43 -1.92,-1.742 -3.51,-3.57 -4.78,-5.429 -1.28,-1.91 -2.12,-3.36 -2.49,-4.371 -1.01,-1.461 -1.55,-2.391 -1.59,-2.86 l -3.19,-6.34 c -0.98,-0.859 -1.51,-1.82 -1.59,-2.851 l -2.65,-10.059 -0.82,0.7 c -0.27,0.402 -0.3,1.8 -0.09,4.128 l 1.63,8.524 0.31,3.5 c 0.65,5.68 1.1,9.098 1.35,10.277 0.25,1.16 -0.1,2.153 -1.05,2.942 -0.96,0.781 -1.73,1.257 -2.31,1.418 l -6.3,1.32 c -1.58,0.301 -2.97,0.5 -4.12,0.652 -1.39,1.16 -3.18,1.957 -5.43,2.391 -2.24,0.457 -3.99,-0.031 -5.2,-1.402 -1.23,-1.399 -2.57,-3.469 -3.98,-6.231 -4.11,-6.559 -6.78,-11.879 -8.04,-15.949 -0.83,-1.02 -1.31,-1.969 -1.47,-2.86 -0.16,-0.859 -0.55,-1.601 -1.18,-2.179 -1.09,-2.18 -2.18,-5.301 -3.26,-9.41 -0.45,-1.582 -0.66,-2.481 -0.68,-2.61 l -1.08,0.207 1.3,14.641 c -0.12,0.453 -0.07,1.801 0.13,4.062 0.19,2.25 0.26,6.368 0.2,12.36 0.41,7.859 -0.11,11.98 -1.54,12.449 -4.17,1.012 -7.26,1.219 -9.23,0.641 h -0.44 c -4.18,-2.309 -6.68,-3.891 -7.48,-4.692 m 145.99,37.02 c -3.63,-1.008 -6.09,-3.117 -7.41,-6.321 -0.59,-1.757 -0.59,-2.628 0,-2.628 -0.92,-0.282 -1.4,-0.731 -1.44,-1.309 -0.09,-5.973 1.71,-9.699 5.41,-11.16 0.71,-0.281 1.12,-0.719 1.22,-1.301 0.13,-0.129 1.44,-0.668 3.93,-1.512 2.5,-0.879 4.2,-1.34 5.09,-1.34 2.92,-0.148 6.35,1.614 10.29,5.25 3.93,3.653 6.19,6.704 6.78,9.192 0.6,2.461 0.25,5.058 -1.07,7.75 -1.31,2.699 -4.53,4.211 -9.68,4.461 h -0.65 c -3.68,0.168 -7.84,-0.18 -12.47,-1.082 m 8.75,-50.887 c 0.23,0.848 0.47,1.879 0.73,3.039 0.23,1.199 0.69,2.039 1.33,2.641 -0.81,0.867 -3.28,2.109 -7.42,3.707 -1.71,0.742 -3.46,0.801 -5.28,0.222 h -0.2 l -4.13,-1.543 -3.84,-3.5 c -0.51,-0.578 -1.59,-2.457 -3.27,-5.679 -1.68,-3.207 -2.58,-5.52 -2.71,-6.989 -1.35,-3.5 -2.32,-7.07 -2.93,-10.699 -0.35,-2.34 -1.15,-4.672 -2.38,-7 -1.25,-2.332 -1.67,-4.64 -1.31,-6.98 -0.21,-2.61 -0.92,-4.653 -2.07,-6.129 -0.03,-3.641 -0.37,-5.774 -1.02,-6.332 -0.61,-2.07 -0.99,-3.86 -1.14,-5.461 0.76,-1.469 0.88,-2.547 0.37,-3.289 -0.24,-1.16 -0.21,-2.43 0.11,-3.82 0.33,-1.391 0.53,-2.469 0.6,-3.168 -1.58,-1.321 -2.18,-2.332 -1.8,-3.063 -0.03,-1.898 0.87,-3.41 2.68,-4.578 0.31,-1.289 1.2,-1.973 2.71,-1.973 l 2.59,-0.648 c 1.39,-0.738 3.75,-1.281 7.03,-1.629 3.28,-0.391 5.54,-0.262 6.78,0.418 1.23,0.66 2.31,1.133 3.22,1.422 0.66,0.871 0.92,3.777 0.77,8.73 l 1.4,15.758 c 0.06,0.84 0.19,1.602 0.41,2.172 -0.11,0.578 -0.12,1.269 -0.05,2.051 0.08,0.828 0.15,1.66 0.22,2.519 l 6.98,36.508 c 0.44,1.461 0.98,2.563 1.62,3.293 m 67.15,64.887 c -1.05,1.472 -2.8,2.402 -5.26,2.82 -5.94,1.031 -10.01,0.152 -12.17,-2.598 -0.84,-1.191 -1.84,-3.441 -3.03,-6.769 -2.95,-6.871 -4.65,-12.024 -5.11,-15.531 -0.25,-1.012 -0.67,-1.993 -1.27,-2.942 -0.59,-0.961 -1.28,-3.09 -2.01,-6.429 -0.48,-0.469 -0.88,-2.508 -1.2,-6.161 -4.59,-1.89 -8.28,-2.82 -11.07,-2.82 -6.44,-1.148 -10.51,-2.32 -12.24,-3.508 -1.71,-1.16 -1.87,-3.679 -0.46,-7.621 2.19,-3.64 6.52,-5.469 12.99,-5.469 1.46,-0.293 3.29,-0.293 5.53,0 h 2.65 c 0.13,0 0.08,-0.711 -0.21,-2.179 l -0.16,-1.973 0.02,-4.82 c 0.42,-5.231 0.38,-10.699 -0.13,-16.379 0.22,-4.09 0.35,-8.442 0.38,-13.11 0.04,-4.691 0.53,-7.511 1.46,-8.519 l -0.26,-3.07 c 0.19,-1.153 0.26,-1.891 0.24,-2.18 0.53,-5.691 1.53,-9.332 3.01,-10.922 0.23,-2.32 0.48,-3.73 0.73,-4.16 l 3.33,-10.039 c 1.47,-1.61 2.19,-2.559 2.17,-2.852 2.27,-2.488 4.09,-3.789 5.39,-3.949 4.68,-0.578 7.59,-0.859 8.77,-0.859 6.76,0 10.09,2.461 9.94,7.441 l -1.38,4.59 c -0.62,4.648 -1.31,7.648 -2.08,8.949 -1.9,13.391 -3.23,26.5 -4.03,39.34 l 0.06,8.09 c 0.16,1.73 0.24,4.801 0.26,9.172 0.01,4.359 0.1,8.41 0.29,12.019 l 6.17,2.188 10.14,2.39 7.84,1.09 c 2.26,0.59 4.05,1.832 5.39,3.711 l 1.01,1.309 c 1.45,1.613 2.12,3.269 1.98,5.031 0.19,2.18 -0.22,3.859 -1.21,5.02 -1.01,1.152 -3,1.761 -6.02,1.878 -3.01,0.063 -6.39,-0.257 -10.13,-1.007 -3.75,-0.7 -5.9,-1.09 -6.5,-1.09 l -7.87,-1.539 c 0.25,1.34 0.45,2.629 0.57,3.929 l 0.41,4.61 0.35,1.519 0.5,5.7 c 0.25,1.3 0.47,2.8 0.6,4.468 0.16,1.692 0.58,4.344 1.27,7.973 0.7,3.641 0.8,5.398 0.35,5.258 m 129.9,-25.129 0.67,2.609 c 0.06,0.59 0.17,1.02 0.34,1.332 0.55,1.16 2.91,2.18 7.11,3.071 1.76,0 3.95,0.328 6.5,1.089 2.58,0.7 4.99,1.297 7.23,1.719 0.74,0.16 1.5,0.231 2.22,0.231 0.73,0 4.21,0.789 10.39,2.398 3.36,1.473 5.96,2.242 7.72,2.402 l 6.15,2.188 c 1.92,0.141 3.38,0.832 4.39,2.082 0.99,1.23 1.31,2.437 0.98,3.609 -2.46,5.539 -3.91,8.379 -4.33,8.5 -2.06,1.758 -3.73,2.782 -5.03,3.051 -0.82,2.508 -4.44,3.16 -10.87,1.969 -3.14,-0.57 -4.9,-1.211 -5.25,-1.969 -1.97,-0.711 -3.46,-0.992 -4.4,-0.851 -0.94,0.14 -2.64,-0.442 -5.11,-1.758 l -10.72,-3.723 c -5.4,-1 -12.51,-2.25 -21.3,-3.687 -4.49,-0.602 -9.61,-1.832 -15.36,-3.723 -3,-0.59 -6.2,-1.609 -9.56,-3.059 -4.24,-3.058 -6.24,-5.601 -5.97,-7.66 -1.25,-4.09 -1.81,-6.191 -1.67,-6.328 -0.12,-2.902 1.17,-5.023 3.86,-6.352 3.18,-0.71 8.5,-0.429 15.99,0.899 l -1.76,-4.828 c 0.19,-1.289 -0.04,-2.969 -0.66,-5.012 -0.63,-2.051 -0.89,-5.039 -0.79,-8.961 l -2.2,-12.226 -0.37,-4.383 c -3.39,-1.457 -5.24,-2.469 -5.59,-3.047 -3.49,-3.063 -5.23,-5.09 -5.18,-6.121 0.06,-1.02 0.6,-2.082 1.62,-3.16 0.99,-1.121 1.98,-1.59 2.95,-1.411 0.96,0.122 2.43,-0.32 4.41,-1.339 l -0.06,-0.653 c 0.16,-1.59 -0.04,-3.316 -0.56,-5.136 -0.52,-1.801 -0.92,-3.653 -1.15,-5.461 -0.24,-1.821 -0.57,-3.532 -1.01,-5.121 l -0.2,-2.211 c 0.17,-1.457 0.17,-3.129 0,-5.02 0.59,-1.75 0.8,-3.418 0.67,-5.008 -0.15,-1.601 -0.46,-3.07 -0.94,-4.402 -0.49,-1.289 -0.75,-2.391 -0.84,-3.27 0.95,-4.347 1.31,-6.769 1.12,-7.199 0.55,-3.762 0.8,-5.969 0.76,-6.57 l 3.12,-4.578 c 6.33,-5.242 12.6,-6.711 18.85,-4.383 0.45,0.16 1.66,1.32 3.61,3.5 0.8,0.75 1.32,2.48 1.57,5.262 l 0.43,4.789 c 0.07,0.89 -0.08,3.5 -0.43,7.859 0.28,2.941 0.77,13.34 1.45,31.27 l 0.9,10.062 17.52,0.859 c 1.64,0 5.35,0.442 11.17,1.321 6.22,2.039 8.61,4.949 7.18,8.73 -2.5,3.219 -4.75,5.449 -6.69,6.809 l -7.84,3.691 c -1.6,0.289 -5,0.328 -10.16,0.11 -5.17,-0.243 -8.16,-0.551 -8.93,-0.993 l 3.86,25.993 z m 47.69,-100.102 c 0.08,-0.84 0.08,-1.726 -0.01,-2.597 l 1,-3.711 2.35,-3.508 c 1.69,-2.492 3.75,-4.223 6.16,-5.231 l 3,-1.113 c 2.19,-1.746 4.16,-1.969 5.9,-0.648 1.73,1.3 2.9,2.64 3.45,3.949 1.02,3.332 4.18,20.66 9.44,51.98 0.64,0.473 4,2.641 10.09,6.582 l 6.91,3.289 c 7.77,4.34 12.96,6.54 15.62,6.54 2.82,0.3 4.97,1.378 6.46,3.269 0.73,1.621 0.49,3.063 -0.71,4.371 0.14,0 0.08,0.52 -0.19,1.531 -0.28,1.028 -0.54,1.797 -0.8,2.309 -0.25,0.512 -1.77,1.629 -4.55,3.371 -1,0.438 -2.46,0.649 -4.37,0.649 -1.93,0 -4.3,-0.34 -7.14,-0.981 -2.87,-0.648 -4.76,-0.949 -5.64,-0.949 -6.21,-2.211 -10.28,-4.192 -12.21,-5.93 0.45,4.961 0.09,7.649 -1.06,8.07 -0.83,0.75 -2.23,1.481 -4.23,2.192 -1.35,1.187 -2.97,2.039 -4.84,2.648 -5.2,1.149 -9.04,0.27 -11.5,-2.648 -1.42,-2.774 -1.97,-5.524 -1.62,-8.301 -0.14,-1.75 -0.14,-4.141 0.03,-7.191 l -0.86,-4.61 -0.39,-4.34 c -0.53,-6.14 -1.04,-9.398 -1.52,-9.871 l -1.64,-6.089 c -0.06,-0.598 -2.32,-10.36 -6.81,-29.29 z m 114.85,42.203 c -2.04,-1.472 -3.8,-2.23 -5.27,-2.3 -1.49,-0.09 -3.38,0.187 -5.69,0.75 0.05,0.468 1.12,3.73 3.32,9.828 h 0.22 c 1.55,4.23 3.65,8.101 6.31,11.613 2.12,4.059 4.29,6.109 6.52,6.109 1.76,0 3.12,-0.461 4.08,-1.312 0.44,-3.34 0.25,-6.117 -0.52,-8.309 -2.31,-7.711 -5.3,-13.172 -8.97,-16.379 m 15.64,-7.882 c 1.83,2.191 4.95,7.441 9.37,15.75 1.76,3.363 2.86,7.363 3.27,12.023 0.41,4.629 -1.44,9.547 -5.55,14.617 -1.89,2.039 -4.98,3.742 -9.28,5.012 -1.97,1.039 -4.57,1.68 -7.77,2 h -2.89 c -0.3,0 -0.8,0.07 -1.53,0.211 l -6.25,-0.883 c -1.02,0 -2.61,-0.5 -4.78,-1.508 -1.83,-0.609 -3.23,-1.543 -4.23,-2.859 l -3.1,-2.602 c -1.21,-1.91 -1.9,-3.218 -2.11,-3.941 -2.44,-2.641 -4.28,-5.027 -5.51,-7.231 l -4.2,-7.648 c -2.43,-5.66 -3.85,-8.949 -4.3,-9.809 -0.44,-0.89 -0.69,-1.679 -0.76,-2.402 -0.06,-0.738 -0.19,-1.328 -0.37,-1.777 l -0.18,-1.953 c -0.8,-0.739 -1.63,-2.629 -2.5,-5.668 -0.47,-2.2 -0.82,-3.36 -0.98,-3.512 l 0.06,-1.981 c -0.61,-1.878 -0.88,-3.128 -0.78,-3.707 l -0.12,-1.5 0.04,-1.98 -0.51,-5.691 c -0.42,-1.461 -0.35,-2.321 0.21,-2.641 l -0.15,-1.707 c -0.12,-1.332 0.22,-2.402 1.03,-3.293 0.85,-0.609 1.21,-1.379 1.14,-2.418 l 0.72,-1.742 c -0.1,-1.18 0.12,-2.117 0.64,-2.848 -0.05,-2.043 0.26,-3.34 0.86,-3.941 0.61,-0.559 1.3,-1.508 2.05,-2.821 0.28,-0.437 1.27,-1.468 3.05,-3.058 1.97,-2.781 3.24,-4.321 3.79,-4.59 0.56,-0.281 1.21,-0.789 1.95,-1.551 0.76,-0.711 2.99,-1.789 6.69,-3.269 0.58,0 1.58,-0.43 2.98,-1.309 0.83,-0.57 1.89,-0.852 3.22,-0.852 l 1.77,-0.242 c 0.6,0.141 1.48,0.071 2.63,-0.207 0.41,-0.422 1.19,-0.742 2.34,-0.871 5.25,-0.582 10.37,0.559 15.33,3.481 1.7,0.871 3.17,2.429 4.39,4.597 2.29,2.633 4.54,5.821 6.71,9.602 2.18,3.82 3.33,6.422 3.45,7.879 l 0.12,1.293 c 0.81,0.758 1.23,1.398 1.27,1.976 0.1,1.184 -1.29,2.782 -4.21,4.801 -2.94,1.621 -7.79,-1.379 -14.48,-8.949 -1.31,0.16 -2.11,-0.43 -2.36,-1.731 -0.53,-1.031 -1.13,-1.859 -1.77,-2.398 -2.02,-1.18 -3.62,-1.781 -4.8,-1.781 -1.18,0 -2.62,0.351 -4.32,1.109 -6,3.77 -8.68,11.731 -8.06,23.813 l -0.29,4.16 c 2.56,-0.883 6.16,-1.321 10.72,-1.321 l 8.23,0.68 c 3.67,0 7.04,2.399 10.11,7.188 m 57.23,47.32 c -1.02,0.211 -2.11,0.351 -3.28,0.441 -1.18,0.059 -2.11,0.16 -2.84,0.321 -3.6,-0.743 -5.76,-1.68 -6.44,-2.852 -0.64,-0.418 -1.79,-1.828 -3.48,-4.141 -1.66,-2.328 -2.6,-4.589 -2.79,-6.769 l -2.45,-7.867 -1.71,-9.172 c 0.09,-0.731 -0.19,-2.11 -0.8,-4.149 -0.62,-2.043 -0.82,-3.359 -0.57,-3.941 -0.13,-1.461 -0.4,-3.289 -0.81,-5.48 -0.42,-2.168 -0.85,-7.598 -1.24,-16.282 -0.39,-8.679 -0.25,-13.359 0.42,-14.09 0.58,-5.109 1.63,-8.148 3.16,-9.179 0.33,-1.297 0.48,-2.039 0.47,-2.18 1.11,-0.867 1.9,-1.969 2.38,-3.277 1.02,0 1.72,-0.352 2.11,-1.09 -0.02,-0.152 0.06,-0.34 0.28,-0.551 0.19,-0.211 0.49,-0.652 0.87,-1.301 0.38,-0.672 2.03,-1.14 4.97,-1.441 4.29,-1.297 7.36,-2.328 9.21,-3.059 3,-0.988 5.82,-1.789 8.42,-2.39 3.06,1.3 5.25,2.902 6.61,4.808 6.64,10.043 11.44,18.774 14.46,26.231 l 1.4,-4.18 c 0.26,-0.277 0.71,-1.879 1.33,-4.777 0.24,-0.75 0.69,-2.332 1.35,-4.801 0.68,-2.5 1.46,-4.473 2.35,-5.922 1.59,-3.769 4.89,-5.68 9.88,-5.68 2.96,0 5.6,0.731 7.93,2.18 4.05,2.481 5.23,6.07 3.6,10.723 -3.46,9.32 -5.03,20.527 -4.76,33.66 0.1,4.508 0.55,11.129 1.3,19.859 l 1.07,11.821 0.43,2.386 0.35,3.934 c 0.1,1.187 -0.21,2.379 -0.91,3.629 -0.69,1.211 -2.49,2.488 -5.39,3.82 -2.92,1.289 -5.28,1.598 -7.11,0.84 -3.92,-1 -7.12,-3.832 -9.6,-8.512 l -2.98,-8.73 -2.04,-10.699 c -0.06,-2.18 -1.66,-6.051 -4.77,-11.579 l -0.63,-1.98 c -1.75,-3.07 -2.63,-4.789 -2.67,-5.223 -1.93,-1.777 -2.96,-3.429 -3.1,-5.027 -1.14,-2.781 -2.01,-4.383 -2.64,-4.82 -0.17,-0.301 -0.41,-0.84 -0.69,-1.641 -0.29,-0.801 -0.74,-1.719 -1.35,-2.738 -0.6,-1.024 -0.92,-1.832 -0.98,-2.391 -2.25,-3.812 -3.37,-5.832 -3.4,-6.133 -0.96,-0.718 -1.5,-1.718 -1.6,-3.047 -0.52,-0.871 -1.38,-1.191 -2.52,-0.871 -1.16,0.282 -1.77,0.7 -1.87,1.309 -0.38,0.73 -0.57,1.73 -0.6,3.043 -0.05,1.328 0.28,5.84 0.96,13.558 l 3.93,19.461 c 0.16,1.75 0.51,3.11 1.03,4.141 1.58,7.727 2.6,12.25 3.08,13.539 0.48,1.32 0.76,3.66 0.83,7 0.09,3.367 -0.9,5.969 -2.94,7.879 -2.47,2.031 -4.23,3.16 -5.22,3.379 m 123.99,-86.641 c 0.27,-2.027 0.9,-3.949 1.94,-5.687 l 3.02,-3.289 c 1.76,-1.891 3.58,-3.051 5.44,-3.473 3.78,-0.309 6.47,-0.18 7.97,0.313 1.53,0.507 2.39,0.636 2.59,0.437 0.21,-0.219 1.85,0.402 4.92,1.859 2.02,1.301 2.62,3.063 1.78,5.274 -2.15,3.898 -3.19,6.769 -3.11,8.598 0.1,1.832 -0.45,4.41 -1.61,7.742 l -0.38,8.328 c 0.08,0.871 0.13,3.84 0.13,8.949 0,1.602 0.17,4.449 0.52,8.512 0.37,4.097 0.69,6.738 0.93,8.008 0.27,1.222 0.54,2.632 0.82,4.23 1.98,10.801 2.23,17.652 0.71,20.551 -0.55,0.281 -1.28,0.949 -2.12,1.969 -0.88,1.031 -1.66,1.781 -2.37,2.179 -0.7,0.453 -1.94,1.391 -3.73,2.852 -1.78,1.461 -3.42,2.18 -4.88,2.18 -1.48,0 -2.62,-0.36 -3.41,-1.098 -8.94,-4.211 -19.75,-16.66 -32.47,-37.352 0.46,8.461 0.93,14.051 1.39,16.828 0.47,2.762 0.82,7.274 1.08,13.551 0.32,3.781 -0.59,5.891 -2.77,6.332 -3.12,1.321 -5.69,2.188 -7.7,2.617 -1.34,0 -3.01,-0.578 -5.02,-1.738 -3.63,-1.031 -5.7,-1.961 -6.22,-2.851 -0.51,-0.868 -0.82,-1.719 -0.91,-2.618 -0.07,-0.882 0.02,-1.562 0.28,-2.082 0.25,-0.519 -0.03,-4.379 -0.8,-11.558 -0.8,-7.231 -1.19,-12.512 -1.19,-15.871 0.03,-3.039 -0.05,-5.621 -0.22,-7.629 l -1.6,-17.93 -0.39,-12.019 -0.29,-3.071 c -0.26,-3.043 -0.12,-4.953 0.39,-5.679 0.83,-2.332 2.92,-3.622 6.27,-3.942 h 2.89 l 1.57,0.219 c 0.44,0 2.6,-0.418 6.5,-1.297 1.92,0 3.57,1.227 4.96,3.707 2.4,13.711 7.13,25.43 14.17,35.191 0.68,1.02 1.18,1.739 1.51,2.192 3.91,4.207 6.75,6.316 8.51,6.316 -0.15,-0.136 -0.31,-1.008 -0.45,-2.609 l -1.73,-9.617 c -0.19,-2.18 -0.03,-4.66 0.45,-7.422 l 1.15,-14.629 0.97,-3.75 c -0.32,-0.422 -0.16,-1.012 0.51,-1.723 m 75.2,33.434 c 0.1,1.027 0.41,2.168 0.98,3.508 0.37,0.851 1.27,3.492 2.68,7.84 1.41,4.378 3.52,8.89 6.28,13.55 2.25,3.93 4.06,5.969 5.41,6.11 1.34,0.172 2.59,-0.309 3.74,-1.41 1.15,-1.079 2.02,-2.911 2.61,-5.461 0.58,-2.547 0.98,-4.18 1.21,-4.918 0.52,-5.821 0.73,-9.309 0.62,-10.5 -0.13,-3.051 -0.7,-5.481 -1.75,-7.309 -1.03,-1.801 -2.5,-3.941 -4.3,-6.332 -1.84,-2.418 -3.1,-5.129 -3.83,-8.199 l -3.12,-5.262 c -2.86,-3.918 -4.51,-5.957 -4.96,-6.098 -1.2,-1.89 -1.8,-2.941 -1.8,-3.062 -1.08,-2.199 -2.13,-3.289 -3.17,-3.289 -0.64,1.191 -1.14,3.89 -1.51,8.09 -1.22,6.129 -1.57,10.57 -1.03,13.351 0.54,2.75 0.89,5.078 1.06,6.989 z m 34.11,108.148 c -0.67,-0.73 -1.07,-1.89 -1.2,-3.492 l -3.46,-9.18 c -0.79,-5.519 -1.71,-11.25 -2.75,-17.16 -1.03,-5.898 -1.63,-9.699 -1.79,-11.468 -0.64,-12.231 -1.2,-19.418 -1.69,-21.61 l -8.56,3.039 c -4.64,1.012 -9.81,0.731 -15.55,-0.847 l -5.6,-3.512 c -1.84,-0.711 -3,-1.32 -3.48,-1.762 -1.64,-2.019 -2.47,-3.098 -2.48,-3.269 -2.78,-2.918 -4.03,-5.528 -3.8,-7.879 -3,-5.66 -4.58,-9.309 -4.73,-10.91 -0.66,-2.481 -0.88,-4.219 -0.67,-5.258 -0.54,-1 -0.72,-2.25 -0.55,-3.68 -0.24,-1.031 -0.44,-2.754 -0.58,-5.141 -0.12,-2.429 -0.35,-4.55 -0.67,-6.472 -0.67,-2.457 -1.03,-4.129 -1.1,-5.008 l -0.33,-3.75 0.05,-1.941 c 0.42,-1.879 0.45,-3.129 0.11,-3.731 l -0.05,-3.019 -0.12,-1.329 0.16,-3.281 c 0.94,-4.23 1.37,-7.058 1.22,-8.519 -0.11,-1.321 0.32,-3 1.32,-5.039 1.58,-3.793 3.63,-6.532 6.11,-8.313 l 12.19,-2.18 c 2.21,0 3.46,0.071 3.78,0.223 3.35,-0.422 5.94,-0.223 7.78,0.668 l 3.09,2.398 c 3.95,4.801 6.13,7.731 6.53,8.75 l 8.77,12.012 c 0.1,-0.578 0.19,-0.93 0.25,-0.98 0.06,-0.071 0.28,-1.442 0.65,-4.051 l 0.88,-2.41 c 1.34,-1.578 2.46,-3.528 3.37,-5.778 0.89,-2.261 1.75,-3.832 2.56,-4.703 0.46,-1.468 1.81,-1.976 4.05,-1.539 0.72,-0.148 1.31,-0.211 1.75,-0.211 0.82,-0.867 2.17,-1.297 4.1,-1.297 2.17,-0.461 3.79,-0.461 4.86,0 2.06,0.278 4.33,2.481 6.74,6.539 0.53,0.872 0.92,2.418 1.18,4.59 0.28,2.192 -0.01,4.391 -0.85,6.551 l -2.82,5.469 -0.3,1.742 c -2.38,4.668 -3.77,9.777 -4.16,15.309 -0.49,1.019 -1.31,7.488 -2.47,19.461 l -0.27,12.007 c 1.4,5.832 3.2,15.411 5.41,28.731 2.21,13.351 3.48,21.879 3.82,25.68 0.23,2.609 0.31,4.71 0.21,6.218 -0.08,1.524 -0.17,3.391 -0.27,5.582 0.09,0.989 -0.41,2.09 -1.48,3.289 l -1.05,5.653 c -0.58,1.758 -2.25,4.468 -5.02,8.09 -2.39,-0.442 -3.91,-0.633 -4.58,-0.563 -0.65,0.082 -2.56,-0.09 -5.68,-0.508 z m 77.38,-91.531 c -1.22,-3.789 -2.32,-6.168 -3.28,-7.117 -0.97,-0.953 -1.65,-1.934 -2.01,-2.934 -0.85,-1.187 -1.84,-2.207 -2.93,-3.058 -1.92,-1.782 -4.75,-1.852 -8.42,-0.231 0.93,7.153 2.68,12.949 5.3,17.473 l 5.7,9.617 c 0.87,1.621 2.34,2.992 4.34,4.16 0.66,0.59 1.5,1.012 2.55,1.301 0.58,-0.289 1.38,-0.441 2.41,-0.441 l 1.28,-0.438 c 0.15,0 0.16,-0.793 0.02,-2.391 l -0.22,-2.41 c -0.47,-5.398 -2.05,-9.91 -4.74,-13.531 m 24.51,12.211 c -0.35,1.031 -0.5,1.898 -0.44,2.648 l -1.11,4.793 c -3.15,7.868 -9.9,12.25 -20.27,13.09 -4.55,0.34 -7.96,0.098 -10.22,-0.633 -2.39,-0.308 -4.22,-0.949 -5.5,-1.976 -1.35,-0.434 -2.36,-0.953 -3,-1.512 -1.19,-0.14 -2.12,-0.66 -2.79,-1.531 -3.27,-2.188 -5.09,-3.641 -5.44,-4.399 -1.96,-2.011 -2.95,-3.101 -2.97,-3.261 l -3.37,-5.68 c -1.64,-1.891 -4.13,-8.379 -7.45,-19.469 -3.69,-8.269 -4.97,-13.609 -3.84,-15.941 l -0.33,-3.488 c -0.08,-2.762 -0.31,-4.43 -0.66,-5.012 l 0.77,-6.359 c 0.8,-4.231 2.26,-8.661 4.36,-13.309 0.6,-1.461 1.02,-2.41 1.29,-2.859 0.26,-0.43 0.74,-1.231 1.44,-2.403 0.7,-1.16 2.01,-2.617 3.92,-4.379 1.89,-1.742 3.71,-2.82 5.46,-3.269 0.4,-0.442 0.83,-0.641 1.26,-0.641 l 4.02,-1.98 c 7.88,-2.321 15.3,-1.891 22.22,1.308 1.23,0.594 1.92,0.871 2.08,0.871 3.8,1.762 6.26,3.641 7.33,5.68 1.76,1.762 2.81,3.68 3.15,5.801 0.34,2.129 -0.03,3.832 -1.08,5.129 -1.97,2.633 -4.6,3.07 -7.83,1.32 l -4.62,-2.199 c -2.43,-0.879 -4.15,-1.52 -5.14,-1.961 -1,-0.418 -2.41,-0.629 -4.26,-0.551 -1.82,0.07 -3.47,0.512 -4.97,1.344 -1.46,0.769 -2.88,2.726 -4.22,5.758 l -1.76,10.058 c 0.23,2.793 0.32,5.313 0.22,7.653 2.06,-0.153 3.75,-0.5 5.1,-1.102 1.34,-0.57 2.1,-0.867 2.25,-0.867 1.11,-0.863 2.49,-1.031 4.16,-0.422 2.03,-0.301 3.26,-0.609 3.68,-0.891 l 4.97,1.313 c 1.71,0.867 3.11,1.816 4.24,2.84 l 5.28,4.816 c 1.43,1.301 2.56,2.461 3.39,3.481 5.64,7.16 9,15.152 10.09,24.043 l 0.21,2.418 c 0.08,0.871 0.2,1.449 0.38,1.73 m 36.3,-39.109 c 0.16,1.75 2.75,12.738 7.77,33 2.05,6.558 3.16,9.91 3.31,10.039 0.09,0.902 0.27,1.98 0.52,3.289 0.09,2.492 -0.33,3.722 -1.22,3.722 -1.05,1.438 -1.7,2.387 -1.95,2.829 -4.19,2.5 -7.53,3.949 -9.99,4.378 -5.51,1.184 -9.5,0.801 -12.03,-1.089 l -1.87,-3.731 c -0.27,-1.308 -0.19,-2.289 0.18,-2.937 0.38,-0.641 0.59,-2.371 0.65,-5.121 -0.38,-2.622 -0.45,-4.309 -0.22,-5.032 l -0.38,-4.386 c -0.15,-1.59 -0.68,-5.153 -1.63,-10.704 -0.93,-5.539 -1.76,-10.699 -2.48,-15.519 l -0.46,-5.231 c -0.17,-1.91 -0.61,-5.179 -1.31,-9.839 -0.36,-0.727 -0.34,-1.25 0.08,-1.539 -0.32,-1.891 -0.69,-3.571 -1.11,-5.008 0.37,-2.473 0.16,-4.16 -0.66,-5.032 l -0.31,-3.519 c 0.29,-3.481 1.65,-5.52 4.1,-6.09 0.26,-0.281 0.58,-0.449 0.96,-0.449 0.36,0 2.42,-0.582 6.14,-1.762 3.73,-1.148 6.08,-1.89 7.1,-2.172 l 4.17,-0.418 c 2.96,0.418 4.56,0.899 4.77,1.512 2.37,5.398 3.59,8.367 3.65,8.957 1.63,1.742 2.69,3.34 3.2,4.813 0.49,1.437 1.31,3 2.4,4.707 1.09,1.66 1.75,2.711 1.95,3.16 0.17,0.441 0.32,1.14 0.4,2.191 1.34,3.469 2.65,5.828 3.93,6.981 0.09,1.007 0.54,1.89 1.34,2.621 0.83,1.179 1.79,2.91 2.89,5.258 l 10.09,16.589 c 0.13,-0.129 0.04,-1.808 -0.24,-5.019 -1.44,-3.192 -3.01,-7.559 -4.67,-13.102 -1.67,-5.418 -2.63,-8.976 -2.95,-10.699 -1.31,-4.699 -1.76,-9.199 -1.43,-13.559 -0.03,-0.441 -0.01,-1.199 0.04,-2.199 0.05,-1.011 0.35,-2.551 0.93,-4.582 0.31,-3.211 2.45,-6.32 6.45,-9.41 1.97,-1.008 3.65,-1.5 5.06,-1.5 1.39,0 3.26,-0.141 5.6,-0.457 3.97,0 6.79,0.668 8.45,1.957 1.65,1.332 2.72,2.543 3.19,3.633 0.47,1.09 0.24,3.168 -0.67,6.226 0.11,1.313 -0.34,2.043 -1.35,2.172 0.31,0.149 0.27,1.039 -0.09,2.61 -0.39,1.621 -0.69,2.859 -0.89,3.73 0.04,0.449 -0.04,2.102 -0.22,5.031 -0.19,2.918 0.6,7.649 2.36,14.207 2.94,8.153 5.26,15.352 6.99,21.614 2.18,7.879 3.42,12.687 3.71,14.437 0.49,2.34 -0.19,4.512 -2.07,6.551 l -9.43,5.91 -4.28,1.539 c -3.94,0.43 -6.57,0.641 -7.88,0.641 -2.15,-0.86 -3.36,-1.18 -3.64,-0.86 -1.1,-1.019 -2.13,-1.761 -3.05,-2.21 l -4.76,-3.93 -6.49,-8.512 c -0.43,-1.469 -0.89,-2.398 -1.37,-2.84 l -6.79,-11.797 c -33.65,-35.703 -33.97,-36.07 -0.97,-1.082 l -2.32,-3.73 -5.95,-12.238 c -1.82,-4.071 -3.52,-7.641 -5.14,-10.711 -0.23,0.73 -0.27,1.968 -0.11,3.711 m 83.55,-1.961 c -0.47,-0.442 -0.95,-1.621 -1.41,-3.508 -1.92,-3.332 -2.92,-5.531 -3.02,-6.551 l -2.3,-3.711 c -0.43,-1.449 -1.04,-3.379 -1.85,-5.699 -0.78,-2.32 -0.81,-4.359 -0.1,-6.09 -0.07,-1.031 0.61,-2.34 2.09,-3.961 -0.04,-0.422 1.23,-1.16 3.77,-2.18 3.05,-0.699 4.81,-1.121 5.33,-1.191 0.5,-0.078 1.23,-0.219 2.16,-0.437 0.94,-0.231 1.52,-0.372 1.73,-0.422 0.23,-0.071 0.34,-0.032 0.34,0.109 4.43,-1.48 7.54,-1.41 9.3,0.211 0.81,0.711 1.08,1.449 0.86,2.191 1.81,7.118 2.77,12.231 2.91,15.289 -0.47,3.2 -1.18,5.18 -2.13,5.891 0.87,3.379 1.27,5.238 1.16,5.688 -1.67,1.171 -2.55,2.043 -2.64,2.621 l -2,2.39 c -2.62,2.039 -5.35,2.852 -8.18,2.391 h -0.22 c -1.39,-0.563 -3.31,-1.582 -5.8,-3.031" /></g></g></svg>